# xmcd
#
# Track frame offsets:
#	150
#	23022
#	43402
#	60095
#	73965
#	91582
#	115842
#	134470
#	152857
#	177187
#	194222
#	212530
#	230420
#	249100
#
# Disc length: 3495 seconds
#
# Revision: 1
# Processed by: cddbd v1.5.1PL2 Copyright (c) Steve Scherf et al.
# Submitted via: audiograbber 1.83.01
#
DISCID=bd0da50e
DTITLE=Colorado Five - Easy
DYEAR=1993
DGENRE=Country
TTITLE0=Ein Wochenend´ lang
TTITLE1=Country Musik
TTITLE2=Trucker Feeling
TTITLE3=Biertrunk
TTITLE4=Der Feigling
TTITLE5=Riverboat
TTITLE6=Der letzte Trucker
TTITLE7=Viel zu teuer
TTITLE8=Easy
TTITLE9=Brenner Paß
TTITLE10=Whisky Song
TTITLE11=Unterwegs
TTITLE12=Freiheit
TTITLE13=Jambo
EXTD=(c) 1993 "Colorado Five Musik"\nBestell-Nr. 111984\nTexte: Jörg (Jogi) Red
EXTD=el
EXTT0=
EXTT1=
EXTT2=
EXTT3=
EXTT4=
EXTT5=
EXTT6=
EXTT7=
EXTT8=
EXTT9=
EXTT10=
EXTT11=
EXTT12=
EXTT13=
PLAYORDER=
